<svg width="113" height="132" viewBox="0 0 113 132" fill="none" xmlns="http://www.w3.org/2000/svg">
<path d="M112.098 112H56.0975C25.1696 112 0.0975342 86.9279 0.0975342 56C0.0975342 25.0721 25.1696 0 56.0975 0C87.0255 0 112.098 25.0721 112.098 56V112Z" fill="#FFAC2F"/>
<path d="M44.2411 71.8C40.5744 71.8 37.8411 70.5667 36.0411 68.1C34.3077 65.6333 33.4411 62.7667 33.4411 59.5C33.4411 56.5 34.0744 53.6333 35.3411 50.9C36.6744 48.1 38.3744 45.6667 40.4411 43.6C42.5744 41.4667 44.8744 39.8667 47.3411 38.8L54.2411 43.9C51.5077 45.0333 49.0411 46.5667 46.8411 48.5C44.7077 50.3667 43.2077 52.3667 42.3411 54.5L42.8411 54.8C43.2411 54.5333 43.6744 54.3333 44.1411 54.2C44.6744 54.0667 45.3744 54 46.2411 54C48.0411 54 49.8077 54.6667 51.5411 56C53.3411 57.3333 54.2411 59.4 54.2411 62.2C54.2411 65.3333 53.2077 67.7333 51.1411 69.4C49.1411 71 46.8411 71.8 44.2411 71.8ZM68.7411 71.8C65.0744 71.8 62.3411 70.5667 60.5411 68.1C58.8077 65.6333 57.9411 62.7667 57.9411 59.5C57.9411 56.5 58.5744 53.6333 59.8411 50.9C61.1744 48.1 62.8744 45.6667 64.9411 43.6C67.0744 41.4667 69.3744 39.8667 71.8411 38.8L78.7411 43.9C76.0077 45.0333 73.5411 46.5667 71.3411 48.5C69.2077 50.3667 67.7077 52.3667 66.8411 54.5L67.3411 54.8C67.7411 54.5333 68.1744 54.3333 68.6411 54.2C69.1744 54.0667 69.8744 54 70.7411 54C72.5411 54 74.3077 54.6667 76.0411 56C77.8411 57.3333 78.7411 59.4 78.7411 62.2C78.7411 65.3333 77.7077 67.7333 75.6411 69.4C73.6411 71 71.3411 71.8 68.7411 71.8Z" fill="white"/>
</svg>
