<svg width="221" height="213" viewBox="0 0 221 213" fill="none" xmlns="http://www.w3.org/2000/svg">
<rect x="10.5" y="13.5" width="199" height="199" fill="#F4F4F4" stroke="#F4F4F4"/>
<path d="M78.76 99.2C82.28 99.2 84.9467 100.4 86.76 102.8C88.6 105.173 89.52 108.48 89.52 112.72C89.52 117.387 88.5467 120.84 86.6 123.08C84.6533 125.293 82.0533 126.4 78.8 126.4C76.5333 126.4 74.5733 125.92 72.92 124.96C71.2667 124 70.04 122.533 69.24 120.56L74.32 118.4C74.6133 119.493 75.12 120.373 75.84 121.04C76.5867 121.68 77.6133 122 78.92 122C80.9733 122 82.4267 121.2 83.28 119.6C84.1333 118 84.56 115.8 84.56 113V112.44H84.4C84.1067 113.4 83.6 114.173 82.88 114.76C82.1867 115.347 81.3867 115.787 80.48 116.08C79.5733 116.347 78.64 116.48 77.68 116.48C76 116.48 74.5067 116.147 73.2 115.48C71.92 114.787 70.9067 113.827 70.16 112.6C69.4133 111.373 69.04 109.92 69.04 108.24C69.04 106.373 69.44 104.773 70.24 103.44C71.04 102.08 72.16 101.04 73.6 100.32C75.0667 99.5733 76.7867 99.2 78.76 99.2ZM78.8 103.68C77.36 103.68 76.2533 104.08 75.48 104.88C74.7067 105.653 74.32 106.747 74.32 108.16C74.32 109.413 74.72 110.4 75.52 111.12C76.3467 111.813 77.44 112.16 78.8 112.16C80.1067 112.16 81.1733 111.773 82 111C82.8533 110.227 83.28 109.213 83.28 107.96C83.28 106.653 82.8533 105.613 82 104.84C81.1733 104.067 80.1067 103.68 78.8 103.68ZM104.408 126.4C101.021 126.4 98.4075 125.253 96.5675 122.96C94.7542 120.64 93.8475 117.253 93.8475 112.8C93.8475 108.347 94.7542 104.973 96.5675 102.68C98.4075 100.36 101.021 99.2 104.408 99.2C107.794 99.2 110.394 100.36 112.208 102.68C114.048 104.973 114.968 108.347 114.968 112.8C114.968 117.253 114.048 120.64 112.208 122.96C110.394 125.253 107.794 126.4 104.408 126.4ZM104.408 121.96C106.114 121.96 107.381 121.227 108.208 119.76C109.034 118.267 109.448 115.947 109.448 112.8C109.448 109.653 109.034 107.347 108.208 105.88C107.381 104.387 106.114 103.64 104.408 103.64C102.701 103.64 101.434 104.387 100.608 105.88C99.7808 107.347 99.3675 109.653 99.3675 112.8C99.3675 115.947 99.7808 118.267 100.608 119.76C101.434 121.227 102.701 121.96 104.408 121.96ZM125.517 99.2C127.651 99.2 129.357 99.88 130.637 101.24C131.917 102.6 132.557 104.4 132.557 106.64C132.557 108.88 131.917 110.68 130.637 112.04C129.357 113.4 127.651 114.08 125.517 114.08C123.384 114.08 121.677 113.4 120.397 112.04C119.117 110.68 118.477 108.88 118.477 106.64C118.477 104.4 119.117 102.6 120.397 101.24C121.677 99.88 123.384 99.2 125.517 99.2ZM124.197 126L141.997 99.6H146.397L128.597 126H124.197ZM125.517 103C124.611 103 123.917 103.32 123.437 103.96C122.957 104.6 122.717 105.493 122.717 106.64C122.717 107.787 122.957 108.68 123.437 109.32C123.917 109.933 124.611 110.24 125.517 110.24C126.424 110.24 127.117 109.933 127.597 109.32C128.077 108.68 128.317 107.787 128.317 106.64C128.317 105.493 128.077 104.6 127.597 103.96C127.117 103.32 126.424 103 125.517 103ZM145.037 111.52C147.171 111.52 148.877 112.2 150.157 113.56C151.437 114.92 152.077 116.72 152.077 118.96C152.077 121.2 151.437 123 150.157 124.36C148.877 125.72 147.171 126.4 145.037 126.4C142.904 126.4 141.197 125.72 139.917 124.36C138.637 123 137.997 121.2 137.997 118.96C137.997 116.72 138.637 114.92 139.917 113.56C141.197 112.2 142.904 111.52 145.037 111.52ZM145.037 115.36C144.131 115.36 143.437 115.68 142.957 116.32C142.477 116.933 142.237 117.813 142.237 118.96C142.237 120.107 142.477 121 142.957 121.64C143.437 122.28 144.131 122.6 145.037 122.6C145.944 122.6 146.637 122.28 147.117 121.64C147.597 121 147.837 120.107 147.837 118.96C147.837 117.813 147.597 116.933 147.117 116.32C146.637 115.68 145.944 115.36 145.037 115.36Z" fill="#0036B4"/>
<circle cx="201" cy="20" r="20" fill="url(#paint0_radial_1913_248)"/>
<circle cx="63" cy="188.5" r="7.5" fill="url(#paint1_radial_1913_248)"/>
<circle cx="10" cy="62" r="8.5" stroke="#FFA621" stroke-width="3"/>
<defs>
<radialGradient id="paint0_radial_1913_248" cx="0" cy="0" r="1" gradientUnits="userSpaceOnUse" gradientTransform="translate(194.009 8.89307) rotate(56.5493) scale(33.1991)">
<stop stop-color="#FFCF87"/>
<stop offset="0.3125" stop-color="#FFA621"/>
<stop offset="0.651042" stop-color="#EF9103"/>
<stop offset="1" stop-color="#FFAC2F"/>
</radialGradient>
<radialGradient id="paint1_radial_1913_248" cx="0" cy="0" r="1" gradientUnits="userSpaceOnUse" gradientTransform="translate(60.3784 184.335) rotate(56.5493) scale(12.4497)">
<stop stop-color="#FFCF87"/>
<stop offset="0.3125" stop-color="#FFA621"/>
<stop offset="0.651042" stop-color="#EF9103"/>
<stop offset="1" stop-color="#FFAC2F"/>
</radialGradient>
</defs>
</svg>
