<svg width="221" height="213" viewBox="0 0 221 213" fill="none" xmlns="http://www.w3.org/2000/svg">
<rect x="10.5" y="13.5" width="199" height="199" fill="#F4F4F4" stroke="#F4F4F4"/>
<path d="M77.88 126V109.28C77.88 108.667 77.88 108.04 77.88 107.4C77.9067 106.733 77.9333 106.053 77.96 105.36C77.0533 106.213 76.04 106.947 74.92 107.56C73.8 108.147 72.6533 108.56 71.48 108.8L70.76 104.16C71.3467 104.08 72.0267 103.893 72.8 103.6C73.5733 103.307 74.3467 102.947 75.12 102.52C75.92 102.093 76.64 101.627 77.28 101.12C77.9467 100.613 78.4533 100.107 78.8 99.6H83.28V126H77.88ZM92.2806 119.88C93.3473 119.88 94.1873 120.173 94.8006 120.76C95.4406 121.347 95.7606 122.133 95.7606 123.12C95.7606 124.133 95.4406 124.933 94.8006 125.52C94.1873 126.08 93.3473 126.36 92.2806 126.36C91.1873 126.36 90.334 126.08 89.7206 125.52C89.1073 124.933 88.8006 124.133 88.8006 123.12C88.8006 122.133 89.1073 121.347 89.7206 120.76C90.334 120.173 91.1873 119.88 92.2806 119.88ZM101.474 126V109.28C101.474 108.667 101.474 108.04 101.474 107.4C101.5 106.733 101.527 106.053 101.554 105.36C100.647 106.213 99.6338 106.947 98.5138 107.56C97.3938 108.147 96.2471 108.56 95.0738 108.8L94.3538 104.16C94.9404 104.08 95.6204 103.893 96.3938 103.6C97.1671 103.307 97.9404 102.947 98.7138 102.52C99.5138 102.093 100.234 101.627 100.874 101.12C101.54 100.613 102.047 100.107 102.394 99.6H106.874V126H101.474ZM113.114 126V106H118.034L118.234 109.6C118.901 108.267 119.808 107.267 120.954 106.6C122.128 105.933 123.421 105.6 124.834 105.6C126.274 105.6 127.568 105.933 128.714 106.6C129.888 107.24 130.768 108.227 131.354 109.56C131.968 108.227 132.914 107.24 134.194 106.6C135.474 105.933 136.794 105.6 138.154 105.6C139.461 105.6 140.648 105.867 141.714 106.4C142.808 106.933 143.674 107.733 144.314 108.8C144.954 109.867 145.274 111.227 145.274 112.88V126H139.794V113.96C139.794 112.493 139.461 111.453 138.794 110.84C138.154 110.227 137.341 109.92 136.354 109.92C135.128 109.92 134.088 110.373 133.234 111.28C132.381 112.16 131.954 113.48 131.954 115.24V126H126.474V113.96C126.474 112.493 126.141 111.453 125.474 110.84C124.834 110.227 124.008 109.92 122.994 109.92C122.301 109.92 121.608 110.107 120.914 110.48C120.248 110.853 119.688 111.44 119.234 112.24C118.808 113.04 118.594 114.093 118.594 115.4V126H113.114Z" fill="#0036B4"/>
<circle cx="201" cy="20" r="20" fill="url(#paint0_radial_1913_232)"/>
<circle cx="63" cy="188.5" r="7.5" fill="url(#paint1_radial_1913_232)"/>
<circle cx="10" cy="62" r="8.5" stroke="#FFA621" stroke-width="3"/>
<defs>
<radialGradient id="paint0_radial_1913_232" cx="0" cy="0" r="1" gradientUnits="userSpaceOnUse" gradientTransform="translate(194.009 8.89307) rotate(56.5493) scale(33.1991)">
<stop stop-color="#FFCF87"/>
<stop offset="0.3125" stop-color="#FFA621"/>
<stop offset="0.651042" stop-color="#EF9103"/>
<stop offset="1" stop-color="#FFAC2F"/>
</radialGradient>
<radialGradient id="paint1_radial_1913_232" cx="0" cy="0" r="1" gradientUnits="userSpaceOnUse" gradientTransform="translate(60.3784 184.335) rotate(56.5493) scale(12.4497)">
<stop stop-color="#FFCF87"/>
<stop offset="0.3125" stop-color="#FFA621"/>
<stop offset="0.651042" stop-color="#EF9103"/>
<stop offset="1" stop-color="#FFAC2F"/>
</radialGradient>
</defs>
</svg>
