<svg width="114" height="112" viewBox="0 0 114 112" fill="none" xmlns="http://www.w3.org/2000/svg">
<path d="M0 0H57.8667C88.7946 0 113.867 25.0721 113.867 56C113.867 86.9279 88.3318 112 57.4039 112C25.9604 112 0 86.5101 0 55.0667V0Z" fill="#FFAC2F"/>
<path fill-rule="evenodd" clip-rule="evenodd" d="M58.5099 37.5211C61.0174 35.2664 64.4182 33.9998 67.9641 34C71.5101 34.0002 74.9107 35.2671 77.4179 37.5221C79.9251 39.7771 81.3336 42.8355 81.3334 46.0243C81.3331 49.2132 79.9243 52.2714 77.4168 54.5261L55.3568 74.3646C52.8493 76.6193 49.4485 77.8859 45.9026 77.8857C42.3566 77.8855 38.956 76.6186 36.4488 74.3636C33.9416 72.1086 32.5331 69.0503 32.5334 65.8614C32.5336 62.6725 33.9424 59.6143 36.4499 57.3596L58.5099 37.5211ZM74.2638 51.6906L64.8114 60.1931L52.2061 48.8571L61.6607 40.3566C62.4848 39.5986 63.468 38.9951 64.5532 38.5811C65.6385 38.1671 66.8043 37.9508 67.9832 37.9448C69.1621 37.9388 70.3305 38.1431 71.421 38.546C72.5114 38.9489 73.5022 39.5423 74.3358 40.2918C75.1695 41.0414 75.8295 41.9323 76.2777 42.9129C76.7259 43.8934 76.9533 44.9442 76.9468 46.0043C76.9404 47.0645 76.7001 48.1129 76.2399 49.089C75.7797 50.0651 75.1088 50.9493 74.266 51.6906H74.2638Z" fill="white"/>
</svg>
