<svg width="114" height="113" viewBox="0 0 114 113" fill="none" xmlns="http://www.w3.org/2000/svg">
<path d="M0 0.529785H57.8667C88.7946 0.529785 113.867 25.6018 113.867 56.5298C113.867 87.4577 88.3318 112.53 57.4039 112.53C25.9604 112.53 0 87.0399 0 55.5964V0.529785Z" fill="#FFAC2F"/>
<path d="M80.4511 57.2003L73.8411 45.5447C73.4057 44.7828 72.7922 44.1522 72.0598 43.7137C71.3273 43.2751 70.5006 43.0434 69.659 43.0407H63.72V37.8777C63.72 37.193 63.4629 36.5364 63.0053 36.0523C62.5478 35.5681 61.9271 35.2961 61.28 35.2961H36.88C34.1887 35.2961 32 37.6118 32 40.4592V66.2743C32 68.2001 33.015 69.8652 34.4961 70.7506C34.7987 75.4464 38.466 79.1819 42.98 79.1819C47.272 79.1819 50.7978 75.8027 51.3956 71.4373H58.9644C59.5622 75.8027 63.088 79.1819 67.38 79.1819C71.672 79.1819 75.1978 75.8027 75.7956 71.4373H75.92C78.6113 71.4373 80.8 69.1217 80.8 66.2743V58.5298C80.8005 58.0612 80.6798 57.6015 80.4511 57.2003ZM42.98 74.0188C40.9621 74.0188 39.32 72.2815 39.32 70.1466C39.32 68.0117 40.9621 66.2743 42.98 66.2743C44.9979 66.2743 46.64 68.0117 46.64 70.1466C46.64 72.2815 44.9979 74.0188 42.98 74.0188ZM67.38 74.0188C65.3621 74.0188 63.72 72.2815 63.72 70.1466C63.72 68.0117 65.3621 66.2743 67.38 66.2743C69.3979 66.2743 71.04 68.0117 71.04 70.1466C71.04 72.2815 69.3979 74.0188 67.38 74.0188ZM63.72 55.9482V48.2037H69.659L74.051 55.9482H63.72Z" fill="white"/>
<path d="M48.3481 44.0732V54.9156" stroke="#FFAC2F" stroke-width="2" stroke-linecap="round" stroke-linejoin="round"/>
<path d="M43.224 49.4943H53.472" stroke="#FFAC2F" stroke-width="2" stroke-linecap="round" stroke-linejoin="round"/>
</svg>
