<svg width="25" height="24" viewBox="0 0 25 24" fill="none" xmlns="http://www.w3.org/2000/svg">
<path d="M22.402 4.01001C21.402 4.50001 20.422 4.69901 19.402 5.00001C18.281 3.73501 16.619 3.66501 15.022 4.26301C13.425 4.86101 12.379 6.32301 12.402 8.00001V9.00001C9.15698 9.08301 6.26698 7.60501 4.40198 5.00001C4.40198 5.00001 0.219977 12.433 8.40198 16C6.52998 17.247 4.66298 18.088 2.40198 18C5.70998 19.803 9.31498 20.423 12.436 19.517C16.016 18.477 18.958 15.794 20.087 11.775C20.4238 10.5527 20.591 9.28987 20.584 8.02201C20.582 7.77301 22.094 5.25001 22.402 4.00901V4.01001Z" fill="#0097FE"/>
</svg>
